<svg width="200" height="40" viewBox="0 0 200 40" fill="none" xmlns="http://www.w3.org/2000/svg">
<path d="M61.6879 7.63485C63.8113 7.63485 65.3758 6.03043 65.3758 3.92808C65.3758 1.82573 63.8113 0.276625 61.6879 0.276625C59.5646 0.276625 58 1.82573 58 3.92808C58 6.03043 59.5646 7.63485 61.6879 7.63485ZM59.0617 39.2808H64.37V11.9502H59.0617V39.2808Z" fill="white"/>
<path d="M85.466 40C94.2387 40 100.385 34.0249 100.385 25.4495C100.385 16.3762 93.5682 11.231 86.36 11.231C81.8898 11.231 78.0901 13.2227 76.0786 16.7635V0H70.7702V25.3942C70.7702 34.3015 76.9167 40 85.466 40ZM85.5218 35.1314C79.8782 35.1314 76.0786 31.148 76.0786 25.6155C76.0786 20.083 79.8782 16.0996 85.5218 16.0996C91.2214 16.0996 95.021 20.083 95.021 25.6155C95.021 31.148 91.2214 35.1314 85.5218 35.1314Z" fill="white"/>
<path d="M117.674 40C122.479 40 126.558 37.7317 128.402 33.3057V39.2808H133.263V25.8368C133.263 17.0954 127.229 11.231 118.568 11.231C109.795 11.231 103.648 17.2614 103.648 25.8368C103.648 34.8548 110.465 40 117.674 40ZM118.512 35.1314C112.812 35.1314 109.013 31.148 109.013 25.6155C109.013 20.083 112.812 16.0996 118.512 16.0996C124.211 16.0996 128.011 20.083 128.011 25.6155C128.011 31.148 124.211 35.1314 118.512 35.1314Z" fill="white"/>
<path d="M138.762 39.2808H144.07V25.0622C144.07 19.1425 147.367 16.0996 152.396 16.0996C157.425 16.0996 160.722 19.1425 160.722 25.0622V39.2808H166.03V25.0622C166.03 15.8783 160.554 11.231 152.396 11.231C144.238 11.231 138.762 15.9336 138.762 25.0622V39.2808Z" fill="white"/>
<path d="M184.41 40C189.216 40 193.295 37.7317 195.139 33.3057V39.2808H200V25.8368C200 17.0954 193.965 11.231 185.304 11.231C176.531 11.231 170.385 17.2614 170.385 25.8368C170.385 34.8548 177.202 40 184.41 40ZM185.248 35.1314C179.549 35.1314 175.749 31.148 175.749 25.6155C175.749 20.083 179.549 16.0996 185.248 16.0996C190.948 16.0996 194.748 20.083 194.748 25.6155C194.748 31.148 190.948 35.1314 185.248 35.1314Z" fill="white"/>
<path fill-rule="evenodd" clip-rule="evenodd" d="M25.1332 31.3529C20.7363 36.0158 13.3278 36.2909 8.58581 31.9672C3.84384 27.6436 3.56413 20.3585 7.96105 15.6956L16.8139 6.30714C17.4719 5.60926 18.5807 5.5681 19.2904 6.2152C20.0002 6.8623 20.042 7.95262 19.3839 8.6505L10.5311 18.0389C7.45034 21.3061 7.64633 26.4105 10.9689 29.44C14.2914 32.4694 19.4824 32.2767 22.5632 29.0095L31.416 19.6211C32.074 18.9232 33.1828 18.8821 33.8926 19.5292C34.6023 20.1763 34.6441 21.2666 33.9861 21.9645L25.1332 31.3529Z" fill="white"/>
<path fill-rule="evenodd" clip-rule="evenodd" d="M41.3502 28.5923C45.9229 24.0958 45.9229 16.8056 41.3502 12.3091C36.7775 7.81256 29.3637 7.81256 24.791 12.3091L15.5843 21.3624C14.8999 22.0353 14.8999 23.1264 15.5843 23.7994C16.2686 24.4724 17.3782 24.4724 18.0626 23.7994L27.2693 14.7461C30.4733 11.5955 35.6679 11.5955 38.8719 14.7461C42.0758 17.8967 42.0758 23.0047 38.8719 26.1553L29.6651 35.2086C28.9808 35.8815 28.9808 36.9726 29.6651 37.6456C30.3495 38.3186 31.4591 38.3186 32.1435 37.6456L41.3502 28.5923Z" fill="white"/>
</svg>
